<svg version="1.1" viewBox="0.0 0.0 384.0 288.0" fill="none" stroke="none" stroke-linecap="square" stroke-miterlimit="10" xmlns:xlink="http://www.w3.org/1999/xlink" xmlns="http://www.w3.org/2000/svg"><clipPath id="p.0"><path d="m0 0l384.0 0l0 288.0l-384.0 0l0 -288.0z" clip-rule="nonzero"/></clipPath><g clip-path="url(#p.0)"><path fill="#000000" fill-opacity="0.0" d="m0 0l384.0 0l0 288.0l-384.0 0z" fill-rule="evenodd"/><path fill="#000000" fill-opacity="0.0" d="m133.78807 87.408134l0 0c0 -29.692913 24.070862 -53.76378 53.76378 -53.76378l0 0c14.259048 0 27.934067 5.664383 38.01674 15.747047c10.082657 10.0826645 15.74704 23.75769 15.74704 38.01673l0 0c0 29.692917 -24.070862 53.763786 -53.76378 53.763786l0 0c-29.692917 0 -53.76378 -24.07087 -53.76378 -53.763786z" fill-rule="evenodd"/><path stroke="#ffffff" stroke-width="1.0" stroke-linejoin="round" stroke-linecap="butt" d="m133.78807 87.408134l0 0c0 -29.692913 24.070862 -53.76378 53.76378 -53.76378l0 0c14.259048 0 27.934067 5.664383 38.01674 15.747047c10.082657 10.0826645 15.74704 23.75769 15.74704 38.01673l0 0c0 29.692917 -24.070862 53.763786 -53.76378 53.763786l0 0c-29.692917 0 -53.76378 -24.07087 -53.76378 -53.763786z" fill-rule="evenodd"/><path fill="#000000" fill-opacity="0.0" d="m233.37976 200.59099l0 0c0 -29.692902 24.070862 -53.76378 53.763794 -53.76378l0 0c14.259033 0 27.934052 5.664383 38.016724 15.747055c10.082672 10.082657 15.74704 23.75769 15.74704 38.016724l0 0c0 29.692917 -24.070862 53.76378 -53.763763 53.76378l0 0c-29.692932 0 -53.763794 -24.070862 -53.763794 -53.76378z" fill-rule="evenodd"/><path stroke="#ffffff" stroke-width="1.0" stroke-linejoin="round" stroke-linecap="butt" d="m233.37976 200.59099l0 0c0 -29.692902 24.070862 -53.76378 53.763794 -53.76378l0 0c14.259033 0 27.934052 5.664383 38.016724 15.747055c10.082672 10.082657 15.74704 23.75769 15.74704 38.016724l0 0c0 29.692917 -24.070862 53.76378 -53.763763 53.76378l0 0c-29.692932 0 -53.763794 -24.070862 -53.763794 -53.76378z" fill-rule="evenodd"/><path fill="#000000" fill-opacity="0.0" d="m43.092037 200.59099l0 0c0 -29.692902 24.070866 -53.76378 53.763783 -53.76378l0 0c14.259041 0 27.934067 5.664383 38.016724 15.747055c10.082672 10.082657 15.747055 23.75769 15.747055 38.016724l0 0c0 29.692917 -24.07087 53.76378 -53.76378 53.76378l0 0c-29.692917 0 -53.763783 -24.070862 -53.763783 -53.76378z" fill-rule="evenodd"/><path stroke="#ffffff" stroke-width="1.0" stroke-linejoin="round" stroke-linecap="butt" d="m43.092037 200.59099l0 0c0 -29.692902 24.070866 -53.76378 53.763783 -53.76378l0 0c14.259041 0 27.934067 5.664383 38.016724 15.747055c10.082672 10.082657 15.747055 23.75769 15.747055 38.016724l0 0c0 29.692917 -24.07087 53.76378 -53.76378 53.76378l0 0c-29.692917 0 -53.763783 -24.070862 -53.763783 -53.76378z" fill-rule="evenodd"/><path fill="#000000" fill-opacity="0.0" d="m134.87254 162.57426l14.67717 -37.133858" fill-rule="evenodd"/><path stroke="#ffffff" stroke-width="1.0" stroke-linejoin="round" stroke-linecap="butt" d="m134.87254 162.57426l14.67717 -37.133858" fill-rule="evenodd"/><path fill="#000000" fill-opacity="0.0" d="m225.56859 125.42487l23.559052 37.133858" fill-rule="evenodd"/><path stroke="#ffffff" stroke-width="1.0" stroke-linejoin="round" stroke-linecap="butt" d="m225.56859 125.42487l23.559052 37.133858" fill-rule="evenodd"/><path fill="#000000" fill-opacity="0.0" d="m170.84328 64.1338l33.417328 0l0 46.551186l-33.417328 0z" fill-rule="evenodd"/><path fill="#ffffff" d="m189.79654 75.19755l0 22.65625l-2.3125 0l0 -19.78125l-4.09375 3.59375l-1.40625 -1.734375l5.765625 -4.734375l2.046875 0z" fill-rule="nonzero"/><path fill="#000000" fill-opacity="0.0" d="m80.14811 177.31665l33.41732 0l0 46.551193l-33.41732 0z" fill-rule="evenodd"/><path fill="#ffffff" d="m96.85137 187.98978q3.171875 0 5.015625 1.640625q1.84375 1.625 1.84375 4.453125q0 1.6875 -0.875 3.3125q-0.859375 1.609375 -3.421875 4.171875l-7.421875 7.359375l11.90625 0l0 2.109375l-14.40625 0l0 -2.65625q5.953125 -6.046875 9.0 -9.140625q3.0625 -3.109375 2.90625 -5.15625q0 -1.765625 -1.234375 -2.859375q-1.234375 -1.109375 -3.140625 -1.109375q-1.671875 0 -2.890625 0.9375q-1.21875 0.9375 -1.625 2.609375l-2.4375 -0.25q0.453125 -2.5 2.34375 -3.953125q1.890625 -1.46875 4.4375 -1.46875z" fill-rule="nonzero"/><path fill="#000000" fill-opacity="0.0" d="m267.00177 177.31665l40.283478 0l0 46.551193l-40.283478 0z" fill-rule="evenodd"/><path fill="#ffffff" d="m286.66937 187.98978q2.8125 0 4.671875 1.640625q1.875 1.625 1.875 4.21875q0 1.734375 -1.0625 3.171875q-1.046875 1.4375 -2.796875 2.046875q2.109375 0.515625 3.28125 2.125q1.1875 1.59375 1.1875 3.703125q0 2.875 -2.03125 4.703125q-2.03125 1.828125 -5.1875 1.828125q-5.34375 0 -7.140625 -4.578125l2.421875 -0.734375q0.609375 1.65625 1.78125 2.421875q1.171875 0.765625 3.125 0.765625q1.953125 0 3.34375 -1.265625q1.390625 -1.28125 1.390625 -3.203125q0 -4.546875 -6.203125 -4.609375l-0.546875 0l0 -2.109375l0.890625 0q5.1875 0 5.25 -4.171875q0 -1.84375 -1.09375 -2.828125q-1.078125 -1.0 -3.09375 -1.0q-2.921875 0 -4.328125 2.484375l-2.015625 -1.015625q1.984375 -3.59375 6.28125 -3.59375z" fill-rule="nonzero"/></g></svg>